<?xml version="1.0" standalone="no"?>
<!DOCTYPE svg PUBLIC "-//W3C//DTD SVG 20010904//EN"
 "http://www.w3.org/TR/2001/REC-SVG-20010904/DTD/svg10.dtd">
<svg version="1.0" xmlns="http://www.w3.org/2000/svg"
 width="1000.000000pt" height="1000.000000pt" viewBox="0 0 1000.000000 1000.000000"
 preserveAspectRatio="xMidYMid meet">

<g transform="translate(0.000000,1000.000000) scale(0.100000,-0.100000)"
fill="red" stroke="none">
<path d="M4968 9553 c7 -3 16 -2 19 1 4 3 -2 6 -13 5 -11 0 -14 -3 -6 -6z"/>
<path d="M4663 9541 c-34 -3 -65 -9 -69 -13 -11 -11 117 -2 146 10 29 12 23
13 -77 3z"/>
<path d="M5485 9529 c26 -16 35 -29 35 -55 0 -26 23 -34 98 -34 43 0 52 -3 52
-18 0 -21 -48 -52 -81 -52 -48 0 -5 -14 96 -31 61 -10 120 -27 139 -38 30 -19
39 -20 91 -10 32 6 87 19 122 30 56 18 71 19 119 9 65 -14 99 -8 114 20 14 26
34 25 51 -1 12 -17 30 -23 97 -30 87 -10 143 -28 175 -57 10 -9 51 -33 90 -52
57 -28 81 -47 117 -93 34 -44 64 -69 121 -100 87 -48 122 -74 132 -99 4 -11
17 -18 33 -18 15 0 67 -21 117 -46 75 -38 94 -44 109 -35 16 10 26 4 71 -37
52 -50 125 -92 158 -92 10 0 30 -5 46 -11 l28 -11 -23 -12 c-23 -12 -22 -13
20 -25 43 -13 128 -57 128 -67 0 -3 -9 -2 -20 1 -14 4 -20 2 -20 -9 0 -18 236
-193 272 -201 33 -8 78 -42 78 -59 0 -21 412 -437 448 -453 19 -8 37 -25 43
-41 30 -81 50 -108 96 -132 39 -21 53 -36 78 -85 37 -73 67 -118 114 -168 l36
-39 -54 21 c-30 11 -72 37 -93 58 -36 35 -52 63 -27 47 19 -12 -19 50 -48 78
-32 31 -108 67 -139 68 -33 0 -67 33 -93 88 -16 35 -28 48 -40 46 -23 -6 -38
7 -55 47 -13 32 -13 38 0 58 21 29 15 75 -11 79 -11 2 -31 14 -45 27 -14 13
-51 43 -82 67 -32 24 -142 109 -245 189 -212 164 -305 227 -412 276 -106 50
-216 117 -293 179 -57 46 -68 60 -68 85 0 37 -31 52 -153 75 -45 9 -122 31
-172 51 -61 24 -110 36 -151 37 -75 4 -91 11 -70 34 13 16 10 17 -47 17 -34 1
-84 5 -110 9 -40 8 -50 6 -61 -9 -11 -16 -17 -16 -50 -5 -20 6 -57 29 -82 51
-31 26 -66 45 -117 60 -39 11 -119 41 -176 66 -84 36 -116 45 -159 44 -31 0
-60 -5 -66 -11 -17 -17 -69 -11 -106 12 -28 18 -51 22 -116 22 -44 1 -87 6
-95 12 -24 19 -103 25 -191 14 -72 -9 -89 -8 -116 6 -17 8 -69 19 -114 24 -46
5 -108 14 -138 20 -30 7 -71 15 -91 19 -51 11 -103 -8 -107 -37 -5 -31 -36
-41 -146 -48 -50 -3 -108 -10 -129 -16 -29 -9 -46 -9 -69 0 -26 9 -47 6 -152
-27 -66 -21 -139 -42 -160 -46 -37 -6 -39 -5 -25 11 13 16 12 16 -16 2 -74
-38 -358 -148 -383 -148 -25 0 -67 -14 -317 -103 -55 -20 -146 -50 -202 -68
-66 -20 -103 -37 -106 -48 -2 -9 -70 -49 -150 -89 -273 -137 -493 -296 -770
-558 -88 -82 -171 -154 -186 -161 -14 -6 -50 -38 -79 -71 -35 -41 -64 -64 -90
-72 -47 -15 -64 -30 -34 -30 45 0 24 -28 -57 -77 -67 -41 -71 -45 -91 -100
-15 -41 -28 -41 -64 -4 -24 25 -26 32 -16 51 9 16 9 25 -1 36 -16 20 16 57 43
48 15 -4 34 9 76 53 31 32 71 69 87 81 17 13 24 20 18 17 -23 -11 -13 11 18
41 50 47 89 114 89 151 0 18 11 52 25 76 34 56 -139 -123 -278 -288 -306 -364
-525 -720 -719 -1170 -112 -258 -221 -576 -235 -685 -6 -45 -6 -45 14 -27 20
17 20 17 17 -10 -2 -15 -1 -21 2 -13 4 8 12 22 19 30 6 8 26 58 44 110 126
370 322 766 451 913 46 52 64 51 54 -3 -6 -26 -18 -40 -65 -69 -33 -20 -59
-39 -59 -43 0 -5 14 -8 30 -8 41 0 39 -21 -9 -68 -38 -38 -121 -186 -121 -218
0 -29 -81 -227 -151 -369 -57 -116 -70 -154 -80 -220 -6 -44 -20 -118 -31
-165 -13 -55 -21 -126 -23 -200 -2 -102 -46 -427 -61 -451 -14 -24 -24 9 -24
83 0 62 -5 92 -20 124 -11 23 -24 61 -28 85 -7 39 -10 28 -21 -86 -15 -151
-24 -515 -12 -469 11 45 19 53 41 47 30 -8 24 -27 -17 -62 l-36 -31 6 -182 c5
-160 40 -494 53 -507 12 -13 19 19 16 84 -1 41 2 77 8 80 5 3 10 -2 10 -13 0
-10 9 -48 20 -83 17 -57 50 -249 50 -293 0 -33 -18 -5 -25 37 -12 75 -25 107
-46 107 -13 0 -19 -7 -19 -22 1 -40 28 -139 45 -161 8 -12 25 -37 36 -54 12
-18 25 -33 30 -33 24 0 41 -68 49 -203 6 -99 17 -169 34 -232 14 -49 26 -100
26 -113 0 -13 4 -21 9 -18 14 9 29 -15 36 -59 10 -54 22 -75 44 -75 29 0 57
-39 109 -150 56 -121 97 -190 113 -190 7 0 9 10 4 27 -12 51 21 6 101 -135 94
-167 167 -283 193 -306 17 -16 19 -16 24 4 3 11 10 20 15 20 6 0 64 -65 131
-144 138 -164 194 -218 248 -234 53 -16 144 -77 313 -213 80 -63 182 -143 227
-177 88 -67 113 -95 113 -127 0 -38 40 -85 122 -145 96 -70 131 -101 124 -108
-3 -3 -12 0 -19 6 -26 22 -96 42 -103 30 -10 -16 39 -55 89 -70 l42 -13 -42
-3 c-71 -5 -202 68 -226 127 -13 32 -85 93 -192 164 -79 53 -100 59 -89 25 15
-46 10 -60 -20 -64 -41 -4 -42 -10 -4 -30 18 -9 55 -37 83 -60 27 -24 55 -44
61 -44 7 0 26 -21 42 -47 44 -68 90 -109 146 -130 53 -19 80 -48 59 -61 -9 -5
26 -34 100 -83 111 -73 112 -74 115 -116 4 -49 20 -65 132 -126 74 -41 250
-111 258 -103 3 3 -29 22 -72 42 -73 35 -99 64 -56 64 11 0 37 -7 56 -15 27
-11 41 -12 56 -4 16 8 32 8 62 -1 81 -23 110 -60 47 -60 -29 0 -51 -16 -51
-37 0 -16 46 -17 56 -2 4 7 23 9 53 5 79 -11 139 -35 162 -67 75 -105 549
-248 1028 -310 180 -22 304 -26 666 -18 263 7 388 23 466 63 26 13 62 27 80
31 59 12 69 16 69 30 0 17 31 35 61 35 17 0 20 4 16 21 -5 19 -3 21 31 15 114
-19 140 -19 184 2 24 12 144 46 268 76 262 64 641 184 710 223 26 16 76 49
111 75 35 26 142 102 237 168 95 67 170 126 167 131 -13 19 -42 8 -80 -32 -43
-44 -210 -149 -237 -149 -11 0 -4 12 23 39 36 37 37 40 18 46 -32 10 -3 37 36
33 23 -1 41 5 63 24 37 31 121 73 129 64 3 -3 12 2 19 12 11 14 16 15 33 4 28
-16 88 12 156 74 28 25 45 43 38 39 -15 -7 -35 28 -27 49 8 20 24 20 49 2 17
-12 18 -16 5 -32 -8 -10 6 -1 33 21 26 22 47 39 47 40 0 0 -13 0 -29 1 -40 1
-61 11 -61 28 0 19 76 81 123 101 39 16 49 35 20 36 -12 0 -6 6 14 16 43 21
68 4 59 -41 l-6 -30 30 29 c16 16 30 39 30 51 0 36 18 75 55 115 36 40 80 117
71 126 -2 3 -11 -8 -20 -24 -20 -40 -185 -196 -229 -216 -60 -29 -87 -19 -47
18 38 34 18 67 -24 40 -28 -19 -46 -4 -20 17 9 7 30 26 48 43 29 28 30 30 9
33 -19 3 -17 7 22 47 51 51 83 105 62 105 -7 0 -24 -11 -37 -25 -30 -32 -44
-32 -58 0 -14 29 -24 31 -57 9 -24 -15 -25 -15 -25 4 0 32 47 80 91 93 21 7
39 18 39 26 0 15 16 17 25 3 4 -6 11 -8 16 -4 5 3 7 10 4 15 -4 5 1 9 10 9 21
0 88 35 104 53 9 11 9 17 1 22 -8 5 -5 14 8 29 11 11 27 39 36 61 9 21 32 54
51 71 33 30 35 35 35 98 0 71 19 133 45 142 8 4 28 1 44 -6 39 -16 85 5 146
64 25 25 53 46 61 46 16 0 19 -16 5 -25 -5 -3 -17 -27 -26 -54 -11 -33 -34
-68 -75 -109 -32 -33 -66 -72 -75 -86 -23 -35 -35 -33 -35 8 0 44 -18 56 -41
27 -29 -35 -43 -99 -29 -129 10 -23 5 -31 -78 -116 -86 -88 -123 -136 -104
-136 5 0 65 47 133 104 68 57 125 103 127 101 2 -2 -4 -18 -14 -37 -28 -53
-53 -147 -41 -151 11 -3 -18 -104 -33 -109 -18 -6 2 -54 28 -66 24 -11 29 -9
59 20 29 28 32 34 19 44 -8 6 -20 23 -26 39 -8 22 -7 33 6 54 30 46 167 211
230 277 62 64 79 98 109 209 17 64 52 147 87 208 15 26 28 62 28 80 1 18 10
57 21 87 56 152 70 219 95 435 10 90 32 118 64 80 7 -8 19 -15 26 -15 11 0 10
11 -6 52 -11 28 -26 58 -34 66 -12 12 -16 7 -30 -36 -10 -28 -26 -62 -37 -76
-12 -15 -15 -27 -9 -31 20 -12 9 -61 -29 -130 -22 -38 -50 -79 -63 -91 -13
-11 -35 -46 -47 -77 -26 -65 -41 -73 -41 -23 0 18 -3 47 -6 64 l-6 31 -47 -51
c-25 -28 -59 -70 -76 -92 -38 -54 -43 -56 -86 -50 -45 8 -71 -6 -99 -51 -23
-37 -40 -38 -40 -4 0 34 -22 17 -68 -52 -25 -39 -48 -63 -57 -61 -14 3 -20
-10 -16 -32 5 -24 -12 -66 -26 -66 -19 0 -103 -47 -103 -58 -1 -4 -15 -23 -32
-42 -17 -19 -28 -27 -24 -17 3 11 2 16 -4 12 -6 -3 -10 -19 -10 -35 0 -22 -10
-36 -50 -65 -28 -21 -58 -51 -66 -69 -23 -43 -64 -86 -85 -86 -13 0 -24 -16
-36 -52 -29 -84 -133 -178 -133 -120 0 42 113 178 213 259 31 25 36 53 9 53
-23 0 -52 30 -52 53 0 29 -27 19 -60 -24 -18 -22 -38 -38 -45 -35 -7 2 -23 -6
-36 -20 -15 -16 -29 -22 -41 -18 -11 3 -31 -2 -45 -12 l-26 -17 19 34 c11 19
36 43 56 54 20 11 49 35 63 53 20 24 31 30 40 22 17 -14 25 -2 25 41 0 29 4
38 21 42 12 3 18 10 15 16 -4 6 9 17 28 25 41 17 213 238 223 286 3 17 10 33
14 36 5 3 9 14 9 26 0 19 -4 20 -47 13 -64 -9 -66 -11 -60 -59 5 -33 0 -52
-26 -101 -40 -76 -140 -179 -167 -172 -15 4 -30 -11 -68 -67 -143 -206 -408
-448 -682 -623 -248 -158 -446 -266 -670 -366 -80 -36 -179 -81 -220 -100 -84
-39 -151 -60 -171 -52 -16 5 -169 -33 -239 -60 -25 -10 -90 -20 -145 -24 -55
-4 -106 -10 -112 -14 -7 -4 -67 -14 -135 -23 -68 -8 -154 -19 -193 -24 -106
-14 -342 -11 -510 5 -154 15 -351 20 -379 9 -9 -3 -16 -10 -16 -15 0 -6 9 -5
21 1 21 12 75 5 97 -12 6 -6 12 -19 12 -29 0 -14 7 -19 29 -19 41 0 83 -18 79
-32 -3 -8 -20 -11 -45 -10 -32 3 -44 -1 -55 -17 -16 -23 -28 -18 -28 11 0 15
-5 18 -19 13 -19 -6 -94 25 -105 44 -3 5 -15 7 -26 4 -24 -6 -27 13 -4 38 14
16 11 17 -53 23 -37 4 -86 7 -108 8 -22 0 -44 4 -50 8 -5 4 -28 11 -50 15 -22
4 -92 27 -155 52 -63 25 -148 51 -189 59 -41 7 -81 20 -91 29 -29 26 -33 16
-5 -16 14 -17 24 -34 21 -36 -3 -3 -30 9 -62 26 -39 21 -51 25 -40 12 10 -10
44 -33 77 -50 60 -33 76 -48 38 -38 -19 5 -20 4 -5 -12 9 -10 16 -24 16 -31 0
-8 9 -24 21 -36 l20 -22 -40 11 c-38 10 -41 9 -70 -22 -29 -31 -35 -33 -76
-28 -50 7 -50 8 -33 -28 15 -34 5 -41 -29 -17 -15 11 -58 36 -95 56 l-68 37 0
44 c0 35 -6 52 -29 77 -16 18 -29 37 -29 43 0 13 -216 125 -242 125 -11 0 -20
-4 -20 -10 0 -5 4 -10 10 -10 12 0 50 -73 50 -95 0 -14 -3 -14 -31 2 -17 10
-38 25 -47 33 -9 9 -38 26 -64 39 -27 12 -48 27 -48 32 0 5 -15 9 -34 9 -18 0
-48 10 -67 23 -19 13 -40 22 -47 19 -6 -2 -29 10 -49 27 -21 17 -44 31 -53 31
-20 1 -70 39 -51 40 11 0 9 6 -6 22 -12 13 -23 32 -26 43 -4 16 -5 17 -6 3 -1
-25 -8 -23 -38 12 -14 17 -30 30 -37 29 -40 -5 -90 38 -144 124 -45 71 -73 99
-79 80 -13 -37 -86 17 -95 69 -5 25 -3 26 28 21 20 -3 40 0 49 7 21 17 19 63
-5 93 -27 34 -25 40 8 32 44 -11 118 -63 157 -111 20 -24 40 -42 44 -39 4 2
21 -9 36 -25 31 -32 45 -31 45 3 0 13 -25 47 -64 87 -68 68 -140 178 -111 166
13 -5 12 1 -5 24 -18 26 -24 28 -40 17 -17 -10 -24 -7 -49 23 -34 39 -38 58
-16 66 11 5 5 18 -26 59 -22 30 -46 52 -52 50 -32 -10 -209 242 -288 410 -21
44 -39 72 -39 62 0 -30 -21 -8 -46 50 -18 39 -23 64 -18 87 4 25 -3 55 -31
122 -54 130 -83 213 -105 301 -14 53 -28 85 -44 99 -13 12 -28 30 -34 41 -28
51 -100 375 -118 528 -4 33 -13 73 -19 90 -34 81 -50 245 -49 525 0 369 31
591 140 1006 24 95 42 179 38 188 -8 20 43 128 83 178 17 21 43 68 59 105 89
218 122 290 183 408 75 142 132 255 165 325 32 69 131 197 212 275 39 39 80
86 89 105 10 19 34 54 53 78 l35 43 -21 15 -22 15 30 26 c17 14 36 23 44 20 7
-3 29 14 50 39 39 47 62 57 53 24 -6 -24 8 -12 188 157 61 57 177 152 259 211
152 109 192 147 122 118 -53 -22 -126 -75 -126 -91 0 -22 -38 -37 -82 -33 -37
3 -43 0 -112 -67 -40 -38 -98 -84 -128 -101 l-55 -31 2 31 c1 23 16 45 54 84
52 53 59 74 28 80 -17 3 -290 -198 -449 -330 -82 -69 -104 -98 -75 -98 6 0 18
-4 26 -9 12 -8 12 -13 -2 -35 -10 -14 -31 -33 -48 -42 -23 -11 -28 -19 -20
-27 19 -19 12 -29 -18 -22 -23 5 -32 1 -52 -24 -32 -40 -66 -89 -90 -129 -12
-20 -25 -32 -33 -29 -9 4 -19 -6 -27 -24 -6 -17 -23 -37 -36 -46 -12 -8 -23
-23 -23 -33 0 -10 -5 -20 -11 -22 -17 -6 -39 -77 -39 -125 0 -37 3 -43 20 -43
47 0 112 53 123 101 4 16 28 42 63 68 59 44 59 43 6 -32 -23 -32 -36 -63 -40
-93 -3 -34 -10 -48 -26 -55 -12 -6 -45 -48 -75 -93 -29 -46 -64 -89 -78 -95
-33 -15 -68 -14 -82 3 -17 20 -3 48 20 41 13 -4 19 -1 19 9 0 22 19 30 36 15
13 -10 17 -10 24 1 10 17 3 37 -27 73 -24 30 -26 37 -23 76 3 36 -20 22 -61
-38 -20 -29 -40 -54 -45 -55 -5 0 -23 -32 -39 -71 -17 -38 -50 -104 -73 -146
l-42 -77 25 -5 c23 -4 29 2 54 57 15 33 35 67 44 75 31 25 30 -14 -3 -89 -30
-69 -49 -140 -37 -140 3 0 31 47 62 105 55 103 85 143 70 94 -16 -50 -134
-275 -153 -290 -11 -9 -30 -48 -42 -85 -13 -38 -40 -108 -62 -156 -43 -98 -68
-196 -68 -276 0 -29 -9 -78 -21 -110 -30 -83 -39 -280 -14 -318 20 -30 16 -88
-10 -150 -12 -28 -19 -35 -35 -31 -19 5 -19 0 -19 -120 0 -99 3 -129 15 -141
10 -9 13 -24 9 -40 -3 -13 -8 -47 -11 -76 -3 -28 -9 -69 -14 -91 -5 -22 -7
-57 -4 -78 3 -24 0 -37 -7 -37 -9 0 -10 -34 -6 -129 5 -83 3 -132 -3 -136 -7
-4 -6 -14 2 -28 7 -12 14 -49 15 -82 1 -33 5 -78 8 -100 15 -102 17 -126 10
-143 -12 -31 -35 16 -35 72 -1 40 -3 47 -11 33 -13 -22 6 -120 27 -142 15 -14
63 -140 101 -265 11 -36 25 -64 30 -63 6 1 13 -11 16 -26 4 -18 25 -45 57 -72
45 -38 68 -79 38 -66 -48 19 -48 19 -48 -1 0 -11 5 -22 11 -24 6 -2 15 -39 21
-83 17 -127 26 -153 71 -202 30 -32 42 -55 43 -77 0 -17 4 -43 8 -57 6 -22 4
-27 -15 -32 -12 -3 -27 -3 -32 0 -12 7 -87 169 -87 188 0 36 -43 127 -64 135
-29 11 -43 29 -60 76 l-14 39 -15 -55 c-18 -60 -34 -168 -45 -300 l-7 -85 -28
74 c-15 40 -33 104 -39 141 -10 57 -9 72 4 101 26 53 11 236 -18 225 -14 -5
-41 90 -32 115 3 8 -3 30 -12 49 -9 19 -20 48 -24 63 -4 19 -12 27 -23 25 -12
-2 -21 9 -31 37 -7 22 -19 54 -26 70 -23 50 -35 160 -41 377 -5 175 -3 207 8
202 12 -4 12 4 -1 48 -32 113 -11 410 33 458 11 12 12 25 5 55 -16 66 -11 144
15 271 14 66 27 158 29 205 3 71 10 101 47 194 38 96 52 118 107 175 76 79 93
126 91 253 l-1 88 -29 6 c-25 5 -28 9 -23 32 12 54 26 91 34 91 5 0 16 26 25
58 19 69 51 142 63 142 5 0 9 14 10 32 0 17 5 34 10 37 5 3 17 31 27 61 23 74
74 165 130 232 37 46 45 61 39 82 -5 22 -3 26 14 26 32 0 162 166 148 188 -3
5 3 17 14 27 11 10 20 15 20 10 0 -19 28 18 33 44 3 16 20 41 36 57 19 18 31
39 31 55 0 54 172 273 210 267 12 -2 30 15 55 52 73 107 106 142 121 129 11
-9 22 -4 53 22 24 21 37 40 35 50 -3 9 5 23 18 31 13 9 53 43 90 76 38 34 80
64 95 68 59 13 69 18 113 56 25 22 65 51 90 65 95 54 167 104 217 151 52 50
67 59 228 130 50 22 174 81 276 131 171 83 219 99 219 70 0 -4 -10 -15 -22
-23 -43 -30 -6 -16 60 23 37 22 108 56 157 77 76 31 103 38 170 39 61 2 93 8
135 27 30 14 91 34 135 44 44 10 85 24 92 30 6 6 53 19 103 29 54 11 105 27
125 41 19 12 53 24 77 26 40 3 43 1 44 -22 1 -14 2 -31 3 -37 1 -14 29 -17 58
-6 16 6 15 8 -7 13 -14 3 -26 13 -28 22 -4 19 80 33 108 18 13 -7 21 -5 31 6
7 8 25 22 41 30 26 14 28 13 28 -5 0 -15 9 -22 34 -27 39 -7 56 0 56 22 0 8 6
14 14 14 25 0 46 -12 46 -26 0 -25 39 -34 177 -41 125 -6 139 -8 155 -28 37
-48 204 -100 215 -68 5 13 -1 16 -52 28 -27 7 -28 8 -10 15 28 12 163 12 170
1 3 -5 20 -12 38 -16 65 -13 187 -57 187 -67 0 -8 -44 -9 -145 -4 l-144 7 -57
-31 c-31 -16 -50 -32 -43 -34 8 -2 70 -9 139 -15 147 -13 309 -40 467 -76 103
-24 114 -25 129 -11 27 27 64 19 103 -22 28 -30 56 -46 131 -71 242 -84 580
-241 802 -374 77 -46 123 -49 50 -3 -51 32 -132 114 -132 133 0 12 8 14 43 9
23 -3 53 -7 67 -9 14 -2 35 -9 47 -15 12 -7 29 -12 38 -12 19 0 220 -137 250
-170 38 -42 220 -197 265 -225 75 -46 144 -110 195 -179 26 -36 53 -66 60 -66
6 0 31 -17 54 -37 39 -33 43 -40 38 -73 -4 -30 0 -44 20 -66 21 -26 23 -27 18
-6 -5 19 -2 22 20 22 34 0 125 -85 208 -195 l60 -80 -32 -3 -33 -3 42 -36 c29
-25 40 -41 37 -55 -4 -12 13 -45 47 -92 130 -181 350 -586 380 -697 20 -77 25
-87 47 -94 27 -9 45 -49 63 -141 8 -43 20 -95 26 -114 6 -19 15 -64 20 -99 5
-35 16 -71 25 -80 73 -74 130 -192 176 -360 13 -46 25 -79 27 -73 2 7 10 12
18 12 11 0 14 -8 12 -27 -2 -17 -8 -27 -17 -25 -9 2 -12 -4 -8 -20 3 -13 9
-47 13 -75 7 -57 24 -63 24 -8 0 19 5 37 11 41 7 4 9 22 5 48 -5 29 0 58 14
100 21 58 20 100 -5 160 -6 14 -5 17 3 12 21 -13 13 64 -13 139 -31 86 -33
175 -5 175 9 0 50 -146 93 -335 32 -139 33 -140 60 -138 31 2 33 -4 11 -51
-17 -34 -17 -35 15 -82 35 -54 34 -65 -5 -39 l-27 17 7 -71 c4 -39 4 -81 0
-93 -7 -22 -7 -21 -30 7 l-24 30 0 -35 c0 -54 10 -80 31 -80 30 0 42 -36 36
-114 -3 -39 -8 -82 -12 -96 -7 -24 -7 -24 8 -5 18 24 36 12 20 -13 -6 -10 -22
-16 -38 -15 l-28 2 8 -87 c5 -48 11 -125 14 -171 l6 -84 39 129 39 129 8 245
c8 274 0 412 -37 630 -115 682 -434 1389 -887 1968 -55 70 -92 108 -115 117
-26 11 -32 19 -28 33 12 37 -308 364 -556 569 -405 335 -849 590 -1359 781
-301 113 -890 260 -787 196 6 -4 25 -10 42 -14 33 -6 43 -32 14 -38 -22 -4
-179 59 -172 69 3 5 15 10 27 10 12 1 0 6 -28 11 -34 6 -56 6 -67 -1 -26 -16
-91 -23 -108 -11 -13 9 -12 12 4 25 19 14 18 15 -15 15 -19 0 -52 3 -74 6 -35
5 -37 4 -20 -7z m1785 -548 c15 -28 13 -33 -12 -29 -15 2 -24 11 -26 26 -4 28
23 30 38 3z m-160 -401 c0 -10 -31 -23 -38 -15 -8 7 19 35 29 29 5 -3 9 -9 9
-14z m1731 -1305 c76 -74 94 -81 84 -32 -6 31 -5 31 51 -28 65 -70 103 -130
109 -174 2 -17 24 -62 49 -99 69 -105 111 -206 95 -235 -6 -9 -5 -26 1 -43 13
-32 6 -42 -19 -27 -16 10 -18 9 -13 -9 3 -14 -2 -26 -19 -38 l-23 -18 27 -66
c31 -75 34 -113 12 -142 -15 -19 -16 -18 -40 9 -14 15 -25 36 -26 45 -5 105
-8 124 -28 158 -15 25 -19 39 -11 44 17 10 2 53 -41 120 -65 101 -83 141 -71
161 29 47 -117 345 -193 395 -23 15 -35 44 -18 44 3 0 37 -29 74 -65z m-99
-59 c6 -14 7 -33 4 -43 -7 -17 -8 -17 -22 1 -16 23 -19 66 -4 66 6 0 15 -11
22 -24z m202 -398 c21 -30 7 -47 -16 -19 -10 13 -18 27 -18 32 0 16 19 9 34
-13z m-8074 -28 c0 -26 -27 -80 -40 -80 -13 0 -13 56 0 81 14 25 40 24 40 -1z
m-104 -247 c-9 -27 -25 -59 -36 -73 -15 -19 -12 -6 12 59 33 87 52 98 24 14z
m8467 -251 c27 -29 39 -74 39 -147 1 -66 -21 -145 -40 -145 -4 0 -9 42 -10 93
-2 50 -5 93 -7 95 -2 2 -15 -4 -28 -13 -24 -15 -26 -15 -36 4 -14 25 -14 86
-1 112 13 24 61 25 83 1z m-48 -212 c-5 -8 -11 -8 -21 1 -12 10 -12 14 -2 20
16 10 33 -5 23 -21z m-8615 -901 c0 -25 -17 -59 -30 -59 -13 0 -13 36 0 61 14
25 30 24 30 -2z m205 -817 c-12 -31 -28 14 -19 56 l7 37 10 -38 c5 -20 6 -45
2 -55z m480 -1169 c-5 -39 -10 -52 -16 -42 -13 21 -11 93 3 107 18 18 21 1 13
-65z m185 -54 c0 -11 -5 -27 -11 -37 -8 -13 -6 -30 10 -70 22 -56 27 -97 12
-106 -17 -11 -31 22 -50 110 -18 82 -18 91 -3 116 12 21 19 25 29 16 7 -6 13
-19 13 -29z m62 -96 c19 -17 24 -43 8 -43 -5 0 -16 14 -25 30 -17 33 -11 38
17 13z m76 -116 c-2 -11 -8 -22 -15 -24 -13 -5 -27 32 -18 46 10 17 36 -1 33
-22z m6841 -56 c17 -11 5 -51 -15 -51 -9 0 -14 11 -14 30 0 31 6 36 29 21z
m-6749 -97 c11 -30 20 -62 20 -72 -1 -15 -3 -14 -16 3 -30 39 -65 117 -60 132
10 25 33 -2 56 -63z m-181 -110 c34 -70 49 -124 34 -124 -30 0 -84 81 -102
153 -23 96 15 79 68 -29z m130 -10 c37 -43 53 -84 33 -84 -17 0 -92 100 -92
123 0 18 21 4 59 -39z m6477 -102 c-24 -47 -75 -107 -84 -98 -4 5 96 146 104
146 2 0 -7 -21 -20 -48z m-6295 -164 c16 -31 29 -62 29 -67 0 -6 -28 18 -63
52 -62 61 -63 62 -43 79 27 21 39 11 77 -64z m5749 -206 c0 -19 -35 -55 -66
-68 -56 -24 -58 -16 -7 31 45 41 73 56 73 37z m-268 -11 c13 7 24 7 30 1 12
-12 -50 -89 -131 -164 -34 -32 -57 -58 -51 -58 12 0 29 16 127 122 62 68 86
84 89 61 1 -7 2 -18 3 -24 0 -6 10 -8 21 -4 11 3 20 2 20 -3 0 -5 -9 -17 -20
-27 -25 -22 -26 -54 -2 -57 37 -3 67 4 94 23 26 19 98 38 98 26 0 -8 -194
-126 -236 -143 -20 -8 -38 -13 -41 -10 -3 3 1 23 10 44 26 66 -11 82 -63 27
-18 -20 -21 -28 -12 -37 18 -18 15 -42 -10 -84 l-21 -36 44 7 c39 7 42 6 30
-8 -17 -22 -110 -67 -136 -67 -12 0 -47 -16 -79 -35 -66 -40 -97 -44 -125 -16
-19 19 -22 18 -208 -88 -273 -156 -447 -225 -493 -196 -19 12 16 35 52 35 41
0 84 25 104 60 23 38 37 43 85 30 22 -6 44 -8 49 -5 17 11 11 37 -10 42 -38
10 -20 28 70 71 l90 42 35 69 c19 38 40 73 46 77 7 4 19 -3 29 -16 16 -22 20
-22 49 -10 17 7 29 15 27 18 -3 2 5 19 18 36 13 17 22 36 19 42 -5 16 100 84
141 91 36 6 103 60 125 102 13 23 104 72 109 59 2 -4 13 -3 24 3z m316 -187
c-22 -47 -47 -63 -55 -37 -4 12 66 97 74 89 2 -2 -6 -26 -19 -52z m167 -165
c8 -12 -23 -49 -41 -49 -22 0 -27 21 -8 41 19 21 39 25 49 8z m-1071 -8 c8
-12 -21 -34 -34 -26 -8 5 -8 11 1 21 13 16 25 18 33 5z m605 -65 c9 -11 6 -18
-15 -35 -15 -12 -31 -21 -35 -21 -15 0 -10 32 8 52 19 22 27 22 42 4z m471
-103 c0 -12 -43 -53 -57 -53 -16 0 -17 32 -1 48 13 13 58 17 58 5z m-1486 -75
c-40 -67 -63 -80 -90 -53 -19 19 -44 19 -44 1 0 -8 8 -22 17 -32 16 -16 15
-19 -31 -60 -65 -60 -106 -61 -49 -2 l27 28 -37 0 c-20 0 -37 5 -37 10 0 12
74 66 133 97 46 25 123 32 111 11z m1153 -42 c-4 -10 -18 -16 -35 -16 -20 0
-41 -12 -66 -36 -20 -19 -58 -45 -84 -56 -65 -29 -104 -58 -98 -74 5 -13 -17
-23 -146 -64 -68 -22 -83 -35 -51 -47 14 -5 13 -8 -6 -15 -28 -10 -76 10 -76
32 0 8 23 26 51 40 78 38 108 70 67 70 -23 0 123 86 160 94 26 6 28 5 22 -15
-8 -26 -7 -25 82 42 35 27 74 49 86 49 12 1 36 12 52 25 29 24 30 24 39 5 5
-10 6 -26 3 -34z m193 -135 c0 -13 -70 -64 -78 -56 -4 4 9 20 28 36 35 30 50
36 50 20z m-1826 -37 c9 -3 16 -13 16 -21 0 -21 -44 -12 -48 10 -4 18 6 21 32
11z m-1907 -29 c28 -8 62 -24 75 -35 l23 -20 -49 15 c-49 14 -72 12 -61 -5 10
-16 -12 -20 -46 -8 -27 9 -30 12 -14 18 14 5 7 10 -28 20 -26 7 -47 17 -47 21
0 14 92 10 147 -6z m853 -59 c0 -8 -4 -17 -9 -21 -12 -7 -24 12 -16 25 9 15
25 12 25 -4z m-1396 -27 c19 -9 29 -9 40 0 20 17 54 -2 62 -34 13 -51 -15 -57
-92 -21 -54 25 -69 39 -59 56 8 13 18 13 49 -1z m3954 -6 c-2 -13 -14 -19 -43
-21 l-40 -3 30 21 c37 25 58 26 53 3z m-481 -10 c3 -6 -10 -19 -27 -28 -45
-23 -67 -4 -34 30 18 18 55 17 61 -2z m-3860 -55 c22 -11 38 -36 29 -46 -9 -8
-52 7 -79 29 -47 36 -13 48 50 17z m354 -18 c19 -11 27 -40 10 -40 -19 0 -81
31 -81 40 0 13 46 13 71 0z m1525 -72 c13 -21 -35 -48 -87 -48 -27 0 -49 4
-49 9 0 9 93 49 117 50 6 1 15 -4 19 -11z m104 -38 l35 -19 -43 -1 c-47 0 -86
15 -77 31 10 14 47 10 85 -11z m-1902 -57 c42 -31 85 -57 97 -59 30 -3 76 -27
164 -87 41 -27 104 -63 140 -79 101 -46 142 -93 109 -126 -22 -22 -54 -13 -90
26 -20 20 -44 42 -54 49 -15 9 -16 14 -6 21 9 6 -20 23 -95 56 -59 26 -128 62
-153 80 -25 18 -66 45 -92 60 -26 14 -52 35 -58 46 -6 11 -17 20 -24 20 -17 0
-48 35 -39 43 13 13 27 6 101 -50z m460 11 c49 -24 112 -83 112 -105 0 -5 -30
7 -67 27 -88 48 -143 85 -143 95 0 17 46 9 98 -17z m92 -193 c5 -11 10 -22 10
-25 0 -11 -26 -6 -46 9 -16 13 -17 16 -4 25 21 14 28 13 40 -9z m458 -8 c4
-24 -20 -46 -42 -37 -21 8 -20 23 1 46 20 22 37 19 41 -9z m446 -169 c27 -10
18 -23 -21 -29 -21 -3 -48 -8 -60 -11 -34 -7 -28 11 10 30 35 17 48 19 71 10z"/>
<path d="M8967 7143 c-15 -14 -6 -43 20 -62 35 -28 40 -20 18 29 -18 40 -25
46 -38 33z"/>
<path d="M7049 1973 c-13 -16 -12 -17 4 -4 16 13 21 21 13 21 -2 0 -10 -8 -17
-17z"/>
<path d="M6920 1826 c0 -13 24 -56 32 -56 16 0 8 35 -12 48 -11 7 -20 10 -20
8z"/>
<path d="M3200 876 c0 -2 8 -10 18 -17 15 -13 16 -12 3 4 -13 16 -21 21 -21
13z"/>
<path d="M5668 9513 c7 -3 16 -2 19 1 4 3 -2 6 -13 5 -11 0 -14 -3 -6 -6z"/>
<path d="M4300 9494 c-41 -7 -82 -16 -90 -18 -27 -9 83 5 150 19 87 17 36 17
-60 -1z"/>
<path d="M4158 9463 c6 -2 18 -2 25 0 6 3 1 5 -13 5 -14 0 -19 -2 -12 -5z"/>
<path d="M4095 9453 c-71 -16 -95 -25 -95 -35 0 -14 91 0 105 17 5 7 17 15 25
18 13 5 13 5 0 5 -8 0 -24 -2 -35 -5z"/>
<path d="M4885 9419 c-10 -16 14 -29 53 -29 27 0 33 4 30 18 -4 20 -72 30 -83
11z"/>
<path d="M3740 9356 c-91 -30 -194 -60 -230 -66 -82 -15 -200 -53 -268 -88
-29 -15 -159 -83 -290 -151 -130 -69 -274 -143 -318 -166 -45 -23 -106 -62
-135 -86 -30 -25 -85 -67 -124 -94 -38 -27 -108 -85 -154 -127 -46 -43 -88
-78 -93 -78 -15 0 -123 -80 -187 -137 l-54 -49 35 1 c20 1 49 12 69 27 19 14
53 36 77 48 23 14 37 27 31 30 -6 4 34 42 90 87 56 44 117 101 136 126 43 57
197 171 169 125 -4 -6 10 -1 32 12 53 33 65 38 95 44 14 3 48 23 75 44 51 41
180 116 297 173 37 18 67 39 67 45 0 13 33 27 105 44 28 6 131 44 230 85 99
40 246 96 328 124 137 47 216 80 192 80 -5 0 -84 -24 -175 -53z"/>
<path d="M4197 9314 c-87 -13 -168 -41 -181 -63 -13 -21 38 -11 169 34 142 48
142 50 12 29z"/>
<path d="M6274 9195 c11 -8 34 -15 50 -14 l31 1 -35 13 c-49 19 -71 19 -46 0z"/>
<path d="M6446 9165 c-7 -18 17 -37 38 -29 21 8 16 25 -11 35 -15 5 -23 3 -27
-6z"/>
<path d="M6564 9119 c-9 -15 13 -28 37 -22 15 4 17 8 8 19 -14 17 -35 18 -45
3z"/>
<path d="M4313 9078 c2 -7 12 -13 22 -13 10 0 20 6 23 13 2 7 -6 12 -23 12
-17 0 -25 -5 -22 -12z"/>
<path d="M4675 9073 c-79 -6 -297 -35 -311 -40 -8 -3 -14 -12 -14 -20 0 -12
13 -14 84 -8 57 5 86 4 90 -4 4 -6 23 -11 42 -11 27 0 36 5 44 24 10 28 60 46
130 46 33 0 41 3 30 10 -8 5 -24 9 -35 8 -11 -1 -38 -3 -60 -5z"/>
<path d="M6650 9051 c-29 -9 -28 -10 74 -40 115 -35 174 -21 82 20 -52 22
-121 31 -156 20z"/>
<path d="M6662 8986 c7 -8 16 -12 21 -9 11 7 -2 23 -19 23 -12 0 -12 -2 -2
-14z"/>
<path d="M3995 8953 c-28 -31 -31 -43 -12 -43 16 0 57 42 57 58 0 20 -18 14
-45 -15z"/>
<path d="M3754 8869 c-128 -33 -212 -79 -146 -79 53 0 248 79 226 92 -5 3 -41
-3 -80 -13z"/>
<path d="M3319 8685 c-228 -108 -307 -157 -297 -184 1 -6 41 15 88 45 47 31
154 89 238 130 83 40 152 76 152 79 0 13 -35 -1 -181 -70z"/>
<path d="M3140 8460 c-14 -4 -43 -8 -64 -9 -23 -1 -58 -12 -84 -27 l-45 -27
-27 33 c-30 37 -63 38 -68 2 -2 -13 -26 -44 -54 -70 -57 -54 -93 -100 -84
-109 3 -4 16 3 29 14 31 29 98 63 123 63 12 0 24 -7 28 -15 3 -9 18 -15 38
-15 26 0 59 19 148 85 108 80 119 94 60 75z"/>
<path d="M5353 8362 l-52 -68 29 -99 c27 -88 30 -112 30 -234 -1 -300 -18
-603 -40 -710 -27 -136 -36 -149 -44 -75 -4 33 -9 78 -12 101 l-6 42 -230 136
-230 135 -64 0 c-56 0 -64 -2 -64 -19 0 -10 12 -99 26 -197 19 -132 31 -184
45 -202 10 -14 19 -32 19 -42 0 -27 37 -67 73 -79 26 -9 40 -26 72 -86 22 -41
42 -75 46 -75 3 0 29 7 58 16 29 8 64 14 79 12 21 -2 -19 -28 -193 -121 -121
-66 -223 -122 -226 -125 -4 -4 8 -45 25 -91 l32 -83 180 -73 c111 -46 180 -79
182 -89 3 -13 -59 -347 -74 -397 -3 -12 -22 -19 -61 -24 -94 -12 -329 -73
-406 -106 -116 -49 -215 -115 -235 -157 -15 -31 -29 -41 -109 -76 -50 -22 -90
-43 -88 -46 2 -3 84 -41 183 -84 l179 -78 26 -54 27 -54 111 0 111 0 -7 -27
c-11 -44 -102 -269 -150 -370 -24 -51 -86 -171 -138 -265 -256 -468 -367 -703
-367 -778 0 -27 -5 -52 -11 -56 -8 -5 -10 10 -5 52 15 157 17 274 6 410 -11
134 -10 179 11 446 l23 298 -24 392 c-30 514 -22 720 41 1078 39 225 148 612
238 845 l19 50 96 23 c65 17 96 29 96 39 0 7 -9 51 -21 97 l-21 82 -371 147
-372 146 -90 -36 c-49 -19 -158 -67 -242 -105 -172 -78 -267 -105 -404 -116
l-94 -7 -3 -73 c-2 -56 2 -83 18 -119 11 -25 18 -48 15 -51 -3 -3 -42 -22 -88
-42 l-82 -37 -115 39 c-63 21 -128 38 -146 38 l-32 0 -7 -87 c-17 -199 14
-422 87 -621 l42 -117 3 -601 3 -602 -72 -21 c-40 -12 -79 -24 -86 -26 -13 -5
-14 -2 83 -215 55 -119 55 -120 29 -370 -51 -500 -169 -1009 -375 -1622 -65
-192 -70 -212 -67 -280 l3 -73 102 151 c192 286 442 722 531 929 108 248 181
566 182 783 0 40 6 87 14 105 7 18 68 84 136 147 293 275 283 261 414 579 62
150 76 194 77 240 1 54 1 55 12 23 7 -24 6 -91 -5 -245 -14 -208 -14 -220 12
-595 23 -319 25 -393 15 -440 -10 -48 -5 -159 28 -692 34 -562 37 -641 25
-690 l-13 -55 -157 -43 -157 -44 66 -87 c156 -202 339 -411 359 -411 8 0 14
-10 14 -26 l0 -27 108 5 c120 6 166 21 204 66 56 66 56 70 -12 419 l-62 316
12 93 c9 71 9 117 0 193 -9 74 -9 122 -1 181 l11 81 137 174 c103 130 197 268
370 542 127 202 257 411 288 463 68 115 209 395 255 505 56 136 134 191 387
274 81 27 177 63 213 80 109 52 128 47 262 -61 205 -165 671 -586 777 -702 30
-32 31 -32 -124 -6 -143 23 -210 42 -287 81 -38 19 -73 29 -103 29 -43 0 -45
-1 -45 -29 l0 -30 -57 20 c-31 10 -82 19 -114 19 -56 0 -59 -1 -95 -45 -21
-24 -39 -43 -41 -42 -1 2 19 70 47 151 l49 148 -47 124 c-54 141 -37 131 -182
114 -115 -14 -198 -40 -349 -109 -69 -32 -170 -74 -223 -92 l-97 -34 -15 -67
c-14 -62 -14 -76 9 -239 14 -96 25 -177 25 -181 0 -4 -35 -8 -77 -10 l-78 -3
-3 -46 c-3 -46 -4 -47 -48 -59 -25 -7 -43 -17 -42 -21 2 -5 40 -54 86 -109
l84 -100 -17 -128 c-39 -306 -100 -572 -207 -902 -92 -285 -174 -562 -237
-796 -49 -182 -52 -197 -49 -298 l3 -107 62 113 62 113 99 39 100 38 90 137
c109 166 184 294 267 460 96 193 167 367 405 996 54 143 102 268 106 279 8 21
183 106 219 106 20 0 27 -10 46 -67 20 -60 21 -79 15 -192 -3 -69 -13 -279
-21 -466 -22 -501 -40 -667 -102 -918 -21 -88 -29 -107 -42 -102 -9 3 -89 49
-178 101 -120 70 -170 94 -197 94 l-35 0 -7 -56 c-11 -94 2 -301 25 -389 12
-44 46 -129 75 -190 54 -108 57 -113 228 -282 l173 -172 77 91 c223 263 378
554 457 859 16 63 53 251 81 419 55 328 78 455 141 790 l41 215 205 206 206
207 106 -50 c292 -137 597 -248 946 -344 199 -55 201 -56 300 -49 172 11 176
12 196 70 21 59 23 136 5 186 -7 19 -41 77 -76 128 l-63 92 -136 69 c-680 340
-1329 747 -1736 1087 l-70 58 275 6 c213 4 289 10 335 23 69 19 188 75 229
107 27 21 28 25 22 80 -14 117 -56 189 -136 233 l-52 28 -311 -5 c-333 -5
-375 -10 -529 -63 l-76 -27 -34 21 c-68 42 -154 62 -301 72 -80 5 -176 18
-221 30 -66 17 -186 28 -186 17 0 -2 9 -68 20 -147 11 -79 20 -149 20 -156 0
-14 -171 -74 -209 -74 -19 0 -22 4 -17 23 4 12 11 74 16 136 16 189 45 227
215 286 61 21 202 85 315 143 210 107 371 178 472 207 65 18 164 79 196 120
12 15 24 42 28 61 5 29 32 54 199 188 204 165 211 171 324 337 l73 106 -20 74
c-12 41 -26 93 -32 117 -9 36 -20 48 -67 78 -78 51 -175 88 -315 124 -115 29
-130 30 -327 30 l-206 0 107 -103 106 -102 -70 -336 -71 -336 -216 -6 c-239
-6 -278 -13 -373 -71 -32 -19 -58 -33 -58 -31 0 2 6 34 14 72 24 115 45 271
56 428 13 186 34 329 65 463 15 60 25 134 25 176 l0 73 -170 38 -170 38 -16
44 -17 43 -61 0 -61 0 -52 -68z m-2102 -1212 c62 0 143 19 172 41 28 20 29 20
42 2 23 -30 33 -73 38 -168 3 -49 15 -119 26 -155 14 -43 21 -92 21 -147 0
-77 -1 -83 -22 -88 -195 -45 -301 -65 -350 -65 l-60 0 7 258 c8 276 3 320 -46
431 l-20 46 78 -77 c69 -68 83 -78 114 -78z m343 -1038 c9 -30 16 -106 19
-204 l5 -158 -52 0 c-49 0 -53 -2 -68 -32 -12 -27 -57 -58 -229 -162 -192
-116 -247 -141 -266 -122 -4 3 51 529 63 607 l5 36 142 6 c155 6 244 27 307
71 42 29 53 23 74 -42z"/>
<path d="M8030 7885 c19 -19 36 -35 39 -35 3 0 -10 16 -29 35 -19 19 -36 35
-39 35 -3 0 10 -16 29 -35z"/>
<path d="M8321 7867 c2 -1 13 -9 24 -17 19 -14 19 -14 6 3 -7 9 -18 17 -24 17
-6 0 -8 -1 -6 -3z"/>
<path d="M8320 7627 c0 -22 50 -87 68 -87 16 0 5 21 -37 70 -23 27 -31 31 -31
17z"/>
<path d="M1227 6596 c-37 -80 -33 -105 4 -33 17 32 28 66 26 75 -2 11 -14 -6
-30 -42z"/>
<path d="M520 5927 c0 -4 -11 -51 -25 -104 -32 -123 -65 -325 -65 -400 0 -31
2 -54 4 -52 16 16 103 545 92 556 -3 4 -6 3 -6 0z"/>
<path d="M566 5724 c-10 -26 -7 -44 8 -44 20 0 29 16 21 40 -8 24 -21 26 -29
4z"/>
<path d="M9421 5218 c-1 -16 4 -28 9 -28 12 0 12 8 0 35 -8 18 -9 17 -9 -7z"/>
<path d="M416 5095 c-26 -62 -14 -573 19 -796 33 -219 54 -174 32 65 -15 150
-33 474 -40 681 -1 49 -5 64 -11 50z"/>
<path d="M807 4930 c-4 -14 -6 -38 -6 -55 1 -27 2 -26 10 10 11 45 7 85 -4 45z"/>
<path d="M991 4484 c0 -11 3 -14 6 -6 3 7 2 16 -1 19 -3 4 -6 -2 -5 -13z"/>
<path d="M520 3894 c0 -15 77 -313 94 -364 l15 -45 -6 40 c-3 22 -12 63 -20
90 -7 28 -23 95 -35 150 -11 55 -27 109 -34 120 -8 11 -14 15 -14 9z"/>
<path d="M1052 3595 c0 -16 3 -39 8 -50 8 -18 9 -18 8 5 0 14 -4 36 -8 50 -8
24 -8 24 -8 -5z"/>
<path d="M8286 3387 c-11 -37 -17 -70 -14 -73 9 -9 40 93 36 118 -2 15 -10 0
-22 -45z"/>
<path d="M8722 3429 c1 -13 8 -23 13 -21 15 3 12 35 -3 40 -9 3 -13 -3 -10
-19z"/>
<path d="M650 3414 c0 -21 22 -74 31 -74 13 0 12 5 -11 47 -11 21 -20 33 -20
27z"/>
<path d="M780 3064 c1 -5 19 -43 40 -84 31 -60 38 -68 33 -40 -7 42 -36 101
-57 119 -9 8 -16 10 -16 5z"/>
<path d="M8387 2984 c-8 -8 3 -34 14 -34 4 0 13 9 19 20 9 17 8 20 -8 20 -10
0 -21 -3 -25 -6z"/>
<path d="M895 2835 c65 -119 127 -230 132 -235 3 -3 2 24 -2 59 -6 53 -12 68
-35 87 -15 13 -47 49 -70 81 -64 85 -67 86 -25 8z"/>
<path d="M1106 2781 c-14 -22 29 -180 71 -266 32 -63 58 -92 107 -117 l40 -20
-19 28 c-10 16 -50 80 -87 143 -58 98 -68 121 -68 162 0 30 -6 53 -16 63 -18
18 -21 19 -28 7z"/>
<path d="M1136 2418 c15 -24 55 -86 90 -139 62 -94 64 -95 99 -91 20 2 35 10
35 17 0 20 -48 54 -68 48 -25 -6 -45 21 -44 59 1 25 -10 42 -58 89 -69 69 -91
76 -54 17z"/>
<path d="M1510 2212 c0 -16 57 -98 103 -147 44 -48 46 -49 47 -24 0 41 -112
179 -146 179 -2 0 -4 -4 -4 -8z"/>
<path d="M2485 2106 c31 -25 46 -26 26 -2 -6 7 -22 16 -34 20 -18 4 -17 2 8
-18z"/>
<path d="M8410 2099 c-73 -40 -77 -46 -40 -54 22 -5 36 -2 48 8 16 15 57 77
50 77 -2 0 -28 -14 -58 -31z"/>
<path d="M2300 2037 c8 -8 26 -18 40 -22 32 -9 25 -2 -20 20 -27 13 -32 14
-20 2z"/>
<path d="M8042 1991 c-15 -9 -13 -42 3 -48 6 -2 19 3 30 11 16 12 17 16 6 30
-15 18 -21 19 -39 7z"/>
<path d="M1790 1887 c0 -29 11 -42 79 -97 30 -25 67 -62 83 -84 15 -21 28 -36
28 -32 0 4 9 2 21 -5 13 -7 19 -17 16 -29 -4 -14 3 -22 25 -29 l29 -10 -26 48
c-15 26 -46 71 -69 100 -41 50 -164 161 -178 161 -5 0 -8 -10 -8 -23z"/>
<path d="M8116 1730 c-82 -60 -105 -85 -89 -101 5 -5 44 27 93 76 47 47 82 85
80 84 -3 0 -41 -27 -84 -59z"/>
<path d="M7917 1749 c7 -7 15 -10 18 -7 3 3 -2 9 -12 12 -14 6 -15 5 -6 -5z"/>
<path d="M2740 1572 c6 -13 14 -21 18 -18 3 4 -2 14 -12 24 -18 16 -18 16 -6
-6z"/>
<path d="M7831 1506 c-14 -14 -21 -26 -16 -26 5 0 4 -5 -3 -12 -21 -21 -13
-25 23 -14 36 11 38 15 26 54 l-6 24 -24 -26z"/>
<path d="M3046 1472 c14 -13 144 -84 144 -79 0 6 -136 87 -146 87 -5 0 -4 -4
2 -8z"/>
<path d="M2300 1214 c0 -31 128 -133 235 -186 114 -57 128 -43 25 25 -43 28
-66 50 -68 65 -2 14 -10 22 -23 22 -11 0 -22 7 -26 16 -3 8 -12 13 -19 10 -7
-3 -16 -1 -19 5 -4 5 -11 7 -16 3 -6 -3 -28 6 -50 20 -21 15 -39 24 -39 20z"/>
</g>
</svg>
